<svg id="Layer_1" data-name="Layer 1" xmlns="http://www.w3.org/2000/svg" viewBox="0 0 96 96"><defs><style>.cls-1{isolation:isolate;}</style></defs><g class="cls-1"><path fill="#fff" d="M48.6,62a1.09,1.09,0,0,1-.5-.13,1,1,0,0,1-.5-.88l0-8.73a1,1,0,0,1,.5-.85l8.08-4.7a1,1,0,0,1,1,0,1,1,0,0,1,.5.87l0,8.73a1,1,0,0,1-.5.86L49.1,61.87A1,1,0,0,1,48.6,62Zm1-9.15,0,6.41,6.07-3.53,0-6.41Z"/><path fill="#fff" d="M48.6,62a1.09,1.09,0,0,1-.5-.13L40,57.18a1,1,0,0,1-.5-.87l0-8.73a1,1,0,0,1,1.5-.86l8.13,4.69a1,1,0,0,1,.5.87l0,8.73a1,1,0,0,1-1,1Zm-7.13-6.27,6.14,3.54,0-6.42L41.5,49.31Z"/><path fill="#fff" d="M48.64,53.28a1.09,1.09,0,0,1-.5-.13L40,48.45a1,1,0,0,1,0-1.73L48.08,42a1,1,0,0,1,1,0l8.13,4.7a1,1,0,0,1,0,1.73l-8.08,4.69A1,1,0,0,1,48.64,53.28Zm-6.14-5.7,6.14,3.54,6.08-3.53-6.13-3.54Z"/></g><path fill="#fff" d="M24.46,35.39a1,1,0,0,1-1-1V10.5A8.51,8.51,0,0,1,32,2H66a8.51,8.51,0,0,1,8.5,8.5V34.39a1,1,0,0,1-2,0V10.5A6.51,6.51,0,0,0,66,4H32a6.51,6.51,0,0,0-6.5,6.5V34.39A1,1,0,0,1,24.46,35.39Z"/><path fill="#fff" d="M66,94H32a8.51,8.51,0,0,1-8.5-8.5V63.35a1,1,0,0,1,2,0V85.5A6.51,6.51,0,0,0,32,92H66a6.51,6.51,0,0,0,6.5-6.5V63.35a1,1,0,0,1,2,0V85.5A8.51,8.51,0,0,1,66,94Z"/><path fill="#fff" d="M56.36,10.1l-.19,0L56,10l-.17-.09-.16-.13a1,1,0,0,1-.29-.71,1,1,0,0,1,.29-.7,1,1,0,0,1,1.42,0,1,1,0,0,1,.22.32,1,1,0,0,1,.07.38,1,1,0,0,1-.29.71A1,1,0,0,1,56.36,10.1Z"/><path fill="#fff" d="M50.73,10.09h-9a1,1,0,0,1,0-2h9a1,1,0,0,1,0,2Z"/><path fill="#fff" d="M53.1,87.57h-9a1,1,0,1,1,0-2h9a1,1,0,0,1,0,2Z"/><path fill="#fff" d="M82.59,58.7a1,1,0,0,1-1-1v-29a1,1,0,1,1,2,0v29A1,1,0,0,1,82.59,58.7Z"/><path fill="#fff" d="M15.41,58.7a1,1,0,0,1-1-1v-29a1,1,0,0,1,2,0v29A1,1,0,0,1,15.41,58.7Z"/><path fill="#fff" d="M49,67c-16.77,0-34.59-3.25-34.59-9.27,0-3.84,6.89-6.08,12.66-7.29a1,1,0,0,1,1.19.77,1,1,0,0,1-.78,1.19c-8.17,1.71-11.07,3.94-11.07,5.33,0,3,12.4,7.27,32.59,7.27s32.59-4.24,32.59-7.27c0-1.39-2.9-3.62-11.07-5.33a1,1,0,0,1-.78-1.19,1,1,0,0,1,1.19-.77c5.77,1.21,12.66,3.45,12.66,7.29C83.59,63.72,65.77,67,49,67Z"/><path fill="#fff" d="M49,38c-16.77,0-34.59-3.25-34.59-9.27,0-2.62,3.17-4.81,9.43-6.51a1,1,0,0,1,.52,1.93c-5.86,1.59-7.95,3.41-7.95,4.58,0,3,12.4,7.27,32.59,7.27s32.59-4.23,32.59-7.27c0-1.2-2.18-3.06-8.3-4.67a1,1,0,1,1,.5-1.94c6.5,1.71,9.8,3.94,9.8,6.61C83.59,34.76,65.77,38,49,38Z"/><path fill="#fff" d="M70.72,65a1,1,0,0,1-1-1v-29a1,1,0,0,1,2,0V64A1,1,0,0,1,70.72,65Z"/><path fill="#fff" d="M27.28,65a1,1,0,0,1-1-1v-29a1,1,0,0,1,2,0V64A1,1,0,0,1,27.28,65Z"/></svg>