<svg id="Layer_1" data-name="Layer 1" xmlns="http://www.w3.org/2000/svg" viewBox="0 0 96 96"><path fill="#fff" d="M88.26,76.41H7.74A5.74,5.74,0,0,1,2,70.67V14.17A5.74,5.74,0,0,1,7.74,8.44H88.26A5.74,5.74,0,0,1,94,14.17v56.5A5.74,5.74,0,0,1,88.26,76.41Zm-80.52-66A3.74,3.74,0,0,0,4,14.17v56.5a3.75,3.75,0,0,0,3.74,3.74H88.26A3.75,3.75,0,0,0,92,70.67V14.17a3.74,3.74,0,0,0-3.74-3.73Z"/><path fill="#fff" d="M63.74,87.57a3.61,3.61,0,0,1-1.24-.22l-9.27-3.26a15.77,15.77,0,0,0-10.46,0L33.5,87.35a3.71,3.71,0,0,1-4.89-4.06,3.7,3.7,0,0,1,2.07-2.77l12.71-6a1,1,0,0,1,1.33.47,1,1,0,0,1-.47,1.34l-12.71,6a1.66,1.66,0,0,0-.95,1.27,1.7,1.7,0,0,0,2.24,1.87l9.28-3.27a17.76,17.76,0,0,1,11.78,0l9.28,3.27a1.7,1.7,0,0,0,2.24-1.87,1.66,1.66,0,0,0-1-1.27l-12.71-6A1,1,0,0,1,51.28,75a1,1,0,0,1,1.33-.47l12.71,6a3.69,3.69,0,0,1,1,6A3.64,3.64,0,0,1,63.74,87.57Z"/><path fill="#fff" d="M87.55,68.69H8.45a1,1,0,1,1,0-2h79.1a1,1,0,1,1,0,2Z"/><path fill="#fff" d="M30.59,62.33h-7a1,1,0,0,1-1-1v-7a1,1,0,0,1,1-1h7a1,1,0,0,1,1,1v7A1,1,0,0,1,30.59,62.33Zm-6-2h5v-5h-5Z"/><path fill="#fff" d="M44.52,62.33h-7a1,1,0,0,1-1-1V46a1,1,0,0,1,1-1h7a1,1,0,0,1,1,1V61.33A1,1,0,0,1,44.52,62.33Zm-6-2h5V47h-5Z"/><path fill="#fff" d="M58.45,62.33h-7a1,1,0,0,1-1-1V37.86a1,1,0,0,1,1-1h7a1,1,0,0,1,1,1V61.33A1,1,0,0,1,58.45,62.33Zm-6-2h5V38.86h-5Z"/><path fill="#fff" d="M72.38,62.33h-7a1,1,0,0,1-1-1V25.58a1,1,0,0,1,1-1h7a1,1,0,0,1,1,1V61.33A1,1,0,0,1,72.38,62.33Zm-6-2h5V26.58h-5Z"/><path fill="#fff" d="M27.11,43.15a1,1,0,0,1-.78-.37,1,1,0,0,1,.15-1.41L40.41,30.15a1.08,1.08,0,0,1,.49-.21L54.55,28,68.26,16.94a1,1,0,0,1,1.26,1.56L55.59,29.74a1.08,1.08,0,0,1-.49.21L41.45,31.88,27.73,42.93A1,1,0,0,1,27.11,43.15Z"/></svg>