<?xml version="1.0" ?><svg id="Layer_1" style="enable-background:new 0 0 32 32;" version="1.1" viewBox="0 0 32 32" xml:space="preserve" xmlns="http://www.w3.org/2000/svg" xmlns:xlink="http://www.w3.org/1999/xlink"><style type="text/css">
	.st0{fill:none;stroke:#fff;stroke-width:1.5;stroke-linecap:round;stroke-linejoin:round;stroke-miterlimit:10;}
</style><g><path class="st0" d="M23.3,31H8.7c-1.3,0-2.3-1-2.3-2.3V3.3C6.4,2,7.4,1,8.7,1h14.6c1.3,0,2.3,1,2.3,2.3v25.3   C25.6,30,24.6,31,23.3,31z"/><path class="st0" d="M23.3,31H8.7c-1.3,0-2.3-1-2.3-2.3v-2.4h19.3v2.4C25.6,30,24.6,31,23.3,31z"/><path class="st0" d="M8.7,1h14.6c1.3,0,2.3,1,2.3,2.3v2.4H6.4V3.3C6.4,2,7.4,1,8.7,1z"/><line class="st0" x1="13.5" x2="18.5" y1="28.7" y2="28.7"/><g><line class="st0" x1="12.9" x2="16" y1="3.3" y2="3.3"/><line class="st0" x1="18.4" x2="19.1" y1="3.3" y2="3.3"/></g></g></svg>