<svg xmlns="http://www.w3.org/2000/svg" xmlns:xlink="http://www.w3.org/1999/xlink" width="200" zoomAndPan="magnify" viewBox="0 0 150 30.000001" height="40" preserveAspectRatio="xMidYMid meet" version="1.0"><defs><clipPath id="73eaa61365"><path d="M 63.113281 11.648438 L 68.917969 11.648438 L 68.917969 17.457031 L 63.113281 17.457031 Z M 63.113281 11.648438 " clip-rule="nonzero"/></clipPath><clipPath id="9b4e406e7c"><path d="M 59.367188 7.902344 L 72.433594 7.902344 L 72.433594 20.96875 L 59.367188 20.96875 Z M 59.367188 7.902344 " clip-rule="nonzero"/></clipPath></defs><path stroke-linecap="butt" transform="matrix(0.725806, 0.000000000000000112, -0.000000000000000112, 0.725806, 7.353872, 14.153228)" fill="none" stroke-linejoin="miter" d="M 0.00220009 0.499303 L 184.403764 0.499303 " stroke="#fff" stroke-width="1" stroke-opacity="1" stroke-miterlimit="4"/><g clip-path="url(#73eaa61365)"><path fill="#fff" d="M 68.839844 14.511719 C 68.839844 14.890625 68.765625 15.257812 68.621094 15.609375 C 68.476562 15.957031 68.269531 16.269531 68 16.535156 C 67.734375 16.804688 67.421875 17.011719 67.070312 17.15625 C 66.722656 17.304688 66.355469 17.375 65.976562 17.375 C 65.597656 17.375 65.230469 17.304688 64.878906 17.15625 C 64.53125 17.011719 64.21875 16.804688 63.953125 16.535156 C 63.683594 16.269531 63.476562 15.957031 63.332031 15.609375 C 63.183594 15.257812 63.113281 14.890625 63.113281 14.511719 C 63.113281 14.132812 63.183594 13.765625 63.332031 13.417969 C 63.476562 13.066406 63.683594 12.757812 63.953125 12.488281 C 64.21875 12.21875 64.53125 12.011719 64.878906 11.867188 C 65.230469 11.722656 65.597656 11.648438 65.976562 11.648438 C 66.355469 11.648438 66.722656 11.722656 67.070312 11.867188 C 67.421875 12.011719 67.734375 12.21875 68 12.488281 C 68.269531 12.757812 68.476562 13.066406 68.621094 13.417969 C 68.765625 13.765625 68.839844 14.132812 68.839844 14.511719 Z M 68.839844 14.511719 " fill-opacity="1" fill-rule="nonzero"/></g><g clip-path="url(#9b4e406e7c)"><path fill="#fff" d="M 65.898438 7.902344 C 62.289062 7.902344 59.367188 10.828125 59.367188 14.4375 C 59.367188 18.042969 62.289062 20.96875 65.898438 20.96875 C 69.507812 20.96875 72.433594 18.042969 72.433594 14.4375 C 72.433594 10.828125 69.507812 7.902344 65.898438 7.902344 Z M 65.898438 19.660156 C 63.011719 19.660156 60.675781 17.324219 60.675781 14.4375 C 60.675781 11.546875 63.011719 9.210938 65.898438 9.210938 C 68.789062 9.210938 71.125 11.546875 71.125 14.4375 C 71.125 17.324219 68.789062 19.660156 65.898438 19.660156 Z M 65.898438 19.660156 " fill-opacity="1" fill-rule="nonzero"/></g></svg>