<svg xmlns="http://www.w3.org/2000/svg" xmlns:xlink="http://www.w3.org/1999/xlink" width="200" zoomAndPan="magnify" viewBox="0 0 150 30.000001" height="40" preserveAspectRatio="xMidYMid meet" version="1.0"><defs><clipPath id="c03604e42f"><path d="M 137.636719 12.011719 L 143.441406 12.011719 L 143.441406 17.816406 L 137.636719 17.816406 Z M 137.636719 12.011719 " clip-rule="nonzero"/></clipPath><clipPath id="385caac133"><path d="M 133.890625 8.265625 L 146.957031 8.265625 L 146.957031 21.332031 L 133.890625 21.332031 Z M 133.890625 8.265625 " clip-rule="nonzero"/></clipPath></defs><g clip-path="url(#c03604e42f)"><path fill="#fff" d="M 143.363281 14.875 C 143.363281 15.253906 143.289062 15.621094 143.144531 15.972656 C 143 16.320312 142.792969 16.632812 142.523438 16.898438 C 142.253906 17.167969 141.945312 17.375 141.59375 17.519531 C 141.246094 17.664062 140.878906 17.738281 140.5 17.738281 C 140.121094 17.738281 139.753906 17.664062 139.402344 17.519531 C 139.054688 17.375 138.742188 17.167969 138.476562 16.898438 C 138.207031 16.632812 138 16.320312 137.855469 15.972656 C 137.707031 15.621094 137.636719 15.253906 137.636719 14.875 C 137.636719 14.496094 137.707031 14.128906 137.855469 13.777344 C 138 13.429688 138.207031 13.117188 138.476562 12.851562 C 138.742188 12.582031 139.054688 12.375 139.402344 12.230469 C 139.753906 12.085938 140.121094 12.011719 140.5 12.011719 C 140.878906 12.011719 141.246094 12.085938 141.59375 12.230469 C 141.945312 12.375 142.253906 12.582031 142.523438 12.851562 C 142.792969 13.117188 143 13.429688 143.144531 13.777344 C 143.289062 14.128906 143.363281 14.496094 143.363281 14.875 Z M 143.363281 14.875 " fill-opacity="1" fill-rule="nonzero"/></g><path stroke-linecap="butt" transform="matrix(0.725806, 0.000000000000000112, -0.000000000000000112, 0.725806, 8.080151, 14.516131)" fill="none" stroke-linejoin="miter" d="M 0.0025912 0.499824 L 184.398773 0.499824 " stroke="#fff" stroke-width="1" stroke-opacity="1" stroke-miterlimit="4"/><g clip-path="url(#385caac133)"><path fill="#fff" d="M 140.421875 8.265625 C 136.8125 8.265625 133.890625 11.191406 133.890625 14.796875 C 133.890625 18.40625 136.8125 21.332031 140.421875 21.332031 C 144.03125 21.332031 146.957031 18.40625 146.957031 14.796875 C 146.957031 11.191406 144.03125 8.265625 140.421875 8.265625 Z M 140.421875 20.023438 C 137.535156 20.023438 135.199219 17.6875 135.199219 14.796875 C 135.199219 11.910156 137.535156 9.574219 140.421875 9.574219 C 143.308594 9.574219 145.648438 11.910156 145.648438 14.796875 C 145.648438 17.6875 143.308594 20.023438 140.421875 20.023438 Z M 140.421875 20.023438 " fill-opacity="1" fill-rule="nonzero"/></g></svg>